<?xml version="1.0" encoding="utf-8"?>
<!-- Generator: Adobe Illustrator 26.0.3, SVG Export Plug-In . SVG Version: 6.00 Build 0)  -->
<svg version="1.1" id="Layer_3" xmlns="http://www.w3.org/2000/svg" xmlns:xlink="http://www.w3.org/1999/xlink" x="0px" y="0px"
	 viewBox="0 0 279 195" style="enable-background:new 0 0 279 195;" xml:space="preserve">
<style type="text/css">
	.st0{fill:#333333;}
	.st1{fill:#6C6C6C;}
	.st2{opacity:0.2;fill:#010101;}
	.st3{fill:#4E4E4E;}
	.st4{fill:#CCCBCB;}
	.st5{fill:#F2F2F2;}
	.st6{fill:#E99D23;}
	.st7{opacity:0.1;fill:#333333;}
	.st8{fill:#FFFFFF;}
	.st9{fill:#F6AE21;}
	.st10{fill:#FFD178;}
	.st11{fill:#1A1A1A;}
	.st12{opacity:0.1;fill:#010101;}
</style>
<g>
	<path class="st0" d="M8,91.61V67.56l38.74-55.25h31.07v54.34h9.36v24.96h-9.36v14.3H48.69v-14.3H8z M51.03,45.2L36.99,66.65h14.04
		V45.2z"/>
	<path class="st0" d="M107.78,21.67c6.37-8.58,16.19-12.87,29.45-12.87c13.17,0,22.97,4.31,29.38,12.94
		c6.41,8.62,9.62,20.39,9.62,35.29c0,14.99-3.21,26.8-9.62,35.42c-6.41,8.62-16.21,12.94-29.38,12.94
		c-13.26,0-23.08-4.31-29.45-12.94c-6.37-8.62-9.55-20.43-9.55-35.42C98.22,42.04,101.41,30.25,107.78,21.67z M145.67,41.37
		c-1.39-3.51-4.2-5.27-8.45-5.27c-4.33,0-7.19,1.75-8.58,5.27c-1.39,3.51-2.08,8.73-2.08,15.67c0,7.02,0.69,12.28,2.08,15.79
		c1.39,3.51,4.25,5.27,8.58,5.27c4.25,0,7.06-1.76,8.45-5.27c1.39-3.51,2.08-8.77,2.08-15.79C147.75,50.1,147.06,44.88,145.67,41.37
		z"/>
	<path class="st0" d="M188.18,91.61V67.56l38.74-55.25h31.07v54.34h9.36v24.96h-9.36v14.3h-29.12v-14.3H188.18z M231.21,45.2
		l-14.04,21.45h14.04V45.2z"/>
</g>
<g>
	<path class="st1" d="M270.45,183.42H6.91c-2.88,0-5.23-1.52-5.23-3.38l0,0c0-1.86,2.35-3.38,5.23-3.38h263.54
		c2.88,0,5.23,1.52,5.23,3.38l0,0C275.68,181.9,273.32,183.42,270.45,183.42z"/>
	<path class="st2" d="M246.68,180.34H18.78c-0.72,0-1.32-0.37-1.32-0.82l0,0c0-0.45,0.59-0.82,1.32-0.82h227.9
		c0.72,0,1.32,0.37,1.32,0.82l0,0C248,179.98,247.41,180.34,246.68,180.34z"/>
	<g>
		<path class="st2" d="M220.78,186.19h41.66c0.47,0,0.86-0.25,0.86-0.56l0,0c0-0.31-0.39-0.56-0.86-0.56h-41.66
			c-0.47,0-0.86,0.25-0.86,0.56l0,0C219.92,185.94,220.31,186.19,220.78,186.19z"/>
		<path class="st2" d="M40.6,185.87h41.66c0.47,0,0.86-0.25,0.86-0.56l0,0c0-0.31-0.39-0.56-0.86-0.56H40.6
			c-0.47,0-0.86,0.25-0.86,0.56l0,0C39.74,185.62,40.12,185.87,40.6,185.87z"/>
		<path class="st2" d="M67.21,190.5h96.28c0.47,0,0.86-0.25,0.86-0.55l0,0c0-0.3-0.39-0.55-0.86-0.55H67.21
			c-0.47,0-0.86,0.25-0.86,0.55l0,0C66.36,190.25,66.74,190.5,67.21,190.5z"/>
	</g>
</g>
<g>
	<g>
		<path class="st3" d="M180.2,161.74l-0.99-4.8l0,0l-0.38-1.84l0,0l-0.39-1.89l-2.23-10.79c-0.13-0.61-0.67-1.06-1.3-1.06h-5.74
			h-0.28l-1.12-7.58h0.7h5.13c0.84,0,1.47-0.77,1.3-1.59l-0.99-4.8l0,0l-0.38-1.84l0,0l-0.39-1.89l-2.23-10.79
			c-0.13-0.61-0.67-1.06-1.3-1.06h-5.07l-0.62-4.21c-0.03-0.2-0.2-0.34-0.39-0.34h-3.74c-0.24,0-0.43,0.22-0.39,0.46l0.6,4.09h-3.67
			h-13.64h-5.33h-10.28h-5.33h-10.51h-1.99l-0.62-4.21c-0.03-0.2-0.2-0.34-0.39-0.34h-3.74c-0.24,0-0.43,0.22-0.39,0.46l0.6,4.09
			h-3.77h-2.85c-0.84,0-1.47,0.77-1.3,1.59l2.05,9.92l0,0l0.77,3.73l1.17,5.67c0.13,0.61,0.67,1.06,1.3,1.06h5.86l1.12,7.58h-2.82
			h-2.85c-0.84,0-1.47,0.77-1.3,1.59l2.05,9.92l0,0l0.77,3.73l1.17,5.67c0.13,0.61,0.67,1.06,1.3,1.06h4.91l2.29,15.57
			c0.03,0.2,0.2,0.34,0.39,0.34h3.74c0.24,0,0.43-0.22,0.39-0.46l-2.28-15.45h2.06h10.28h5.33h13.64h7.54h11.9l2.29,15.57
			c0.03,0.2,0.2,0.34,0.39,0.34H174c0.24,0,0.43-0.22,0.39-0.46l-2.28-15.45h1.65h5.13C179.74,163.34,180.37,162.57,180.2,161.74z
			 M164.34,141.37h-2.72h-13.64h-5.33h-10.28h-5.33h-10.51h-2.94l-1.12-7.58h1.11h10.28h5.33h13.64h7.54h12.76h0.09L164.34,141.37z"
			/>
		<g>
			<path class="st4" d="M146.14,179.24h3.74c0.2,0,0.37-0.14,0.39-0.34l10.49-71.17c0.04-0.24-0.15-0.46-0.39-0.46h-3.74
				c-0.2,0-0.37,0.14-0.39,0.34l-10.49,71.17C145.71,179.03,145.9,179.24,146.14,179.24z"/>
			<path class="st4" d="M90.84,179.24h3.74c0.2,0,0.37-0.14,0.39-0.34l10.49-71.17c0.04-0.24-0.15-0.46-0.39-0.46h-3.74
				c-0.2,0-0.37,0.14-0.39,0.34l-10.49,71.17C90.41,179.03,90.6,179.24,90.84,179.24z"/>
			<g>
				<path class="st5" d="M91.25,133.79h71.53c0.63,0,1.17-0.44,1.3-1.06l4-19.32c0.17-0.82-0.46-1.59-1.3-1.59H95.25
					c-0.63,0-1.17,0.44-1.3,1.06l-4,19.32C89.78,133.02,90.41,133.79,91.25,133.79z"/>
				<g>
					<polygon class="st6" points="100.98,111.82 114.47,133.79 122.02,133.79 108.53,111.82 					"/>
					<polygon class="st6" points="91.33,125.56 96.38,133.79 101.71,133.79 92.67,119.06 					"/>
					<polygon class="st6" points="122.16,111.82 135.65,133.79 140.98,133.79 127.5,111.82 					"/>
					<polygon class="st6" points="137.78,111.82 151.27,133.79 156.6,133.79 143.11,111.82 					"/>
					<polygon class="st6" points="158.95,111.82 153.62,111.82 164.68,129.84 166.02,123.34 					"/>
				</g>
				<path class="st5" d="M85.95,163.34h71.53c0.63,0,1.17-0.44,1.3-1.06l4-19.32c0.17-0.82-0.46-1.59-1.3-1.59H89.94
					c-0.63,0-1.17,0.44-1.3,1.06l-4,19.32C84.48,162.57,85.11,163.34,85.95,163.34z"/>
				<g>
					<polygon class="st6" points="95.68,141.37 109.17,163.34 116.71,163.34 103.23,141.37 					"/>
					<polygon class="st6" points="86.02,155.1 91.08,163.34 96.41,163.34 87.37,148.61 					"/>
					<polygon class="st6" points="116.86,141.37 130.35,163.34 135.68,163.34 122.19,141.37 					"/>
					<polygon class="st6" points="132.48,141.37 145.96,163.34 151.3,163.34 137.81,141.37 					"/>
					<polygon class="st6" points="153.65,141.37 148.32,141.37 159.38,159.38 160.72,152.88 					"/>
				</g>
			</g>
			<path class="st7" d="M166.78,111.82h-2.85l-3.12,15.07c-0.12,0.58-0.63,1-1.23,1H91.93c-0.41,0-0.76-0.2-0.99-0.49l-0.99,4.8
				c-0.17,0.82,0.46,1.59,1.3,1.59h71.53c0.63,0,1.17-0.44,1.3-1.06l4-19.32C168.24,112.6,167.62,111.82,166.78,111.82z"/>
			<path class="st7" d="M161.48,141.37h-2.85l-3.12,15.07c-0.12,0.58-0.63,1-1.23,1H86.63c-0.41,0-0.76-0.2-0.99-0.49l-0.99,4.8
				c-0.17,0.82,0.46,1.59,1.3,1.59h71.53c0.63,0,1.17-0.44,1.3-1.06l4-19.32C162.94,142.14,162.31,141.37,161.48,141.37z"/>
			<g>
				<path class="st8" d="M94.17,145.91h3.79c0.83,0,1.52-0.68,1.52-1.51l0,0c0-0.83-0.68-1.51-1.52-1.51h-3.79
					c-0.83,0-1.51,0.68-1.51,1.51l0,0C92.65,145.23,93.33,145.91,94.17,145.91z"/>
				<path class="st8" d="M148.96,154.5h2.53c0.56,0,1.01-0.45,1.01-1.01l0,0c0-0.56-0.45-1.01-1.01-1.01h-2.53
					c-0.56,0-1.01,0.45-1.01,1.01l0,0C147.95,154.04,148.41,154.5,148.96,154.5z"/>
				<path class="st8" d="M110.08,116.37h3.79c0.83,0,1.52-0.68,1.52-1.52l0,0c0-0.83-0.68-1.51-1.52-1.51h-3.79
					c-0.83,0-1.51,0.68-1.51,1.51l0,0C108.56,115.69,109.24,116.37,110.08,116.37z"/>
				<path class="st8" d="M100.99,126.22h4.55c0.83,0,1.52-0.68,1.52-1.51l0,0c0-0.83-0.68-1.52-1.52-1.52h-4.55
					c-0.83,0-1.51,0.68-1.51,1.52l0,0C99.47,125.54,100.15,126.22,100.99,126.22z"/>
				<path class="st8" d="M153.25,117.88h4.55c0.83,0,1.51-0.68,1.51-1.51l0,0c0-0.83-0.68-1.52-1.51-1.52h-4.55
					c-0.83,0-1.52,0.68-1.52,1.52l0,0C151.74,117.2,152.42,117.88,153.25,117.88z"/>
			</g>
		</g>
	</g>
	<g>
		<g>
			<path class="st6" d="M182.08,149.58c-0.15-0.44-0.78-0.44-0.93,0l-3.48,9.75h7.79L182.08,149.58z"/>
			<path class="st6" d="M191.76,177.48l-2.85-8.2h-14.8l-2.92,8.2c-0.11,0.32,0.12,0.66,0.47,0.66h19.64
				C191.63,178.14,191.87,177.8,191.76,177.48z"/>
			<polygon class="st5" points="185.46,159.32 177.67,159.32 174.11,169.28 188.92,169.28 			"/>
		</g>
		<path class="st9" d="M168.87,179.24h25.3c0.36,0,0.65-0.29,0.65-0.65v-1.48c0-0.36-0.29-0.65-0.65-0.65h-25.3
			c-0.36,0-0.65,0.29-0.65,0.65v1.48C168.22,178.95,168.51,179.24,168.87,179.24z"/>
		<path class="st7" d="M194.23,176.48h-2.8l-2.49-7.2l-3.45-9.96l-3.37-9.74c-0.15-0.44-0.77-0.44-0.93,0l-0.45,1.27l7.81,23.97
			h-16.33l-0.59,1.66h-2.81c-0.33,0-0.6,0.27-0.6,0.6v1.57c0,0.33,0.27,0.6,0.6,0.6h25.41c0.33,0,0.6-0.27,0.6-0.6v-1.57
			C194.82,176.74,194.56,176.48,194.23,176.48z"/>
		<g>
			<path class="st8" d="M181.61,160.43h1.11c0.46,0,0.83-0.37,0.83-0.83l0,0c0-0.46-0.37-0.83-0.83-0.83h-1.11
				c-0.46,0-0.83,0.37-0.83,0.83l0,0C180.78,160.05,181.16,160.43,181.61,160.43z"/>
			<path class="st8" d="M179.12,169.28h-2.21c-0.3,0-0.55-0.25-0.55-0.55l0,0c0-0.3,0.25-0.55,0.55-0.55h2.21
				c0.3,0,0.55,0.25,0.55,0.55l0,0C179.68,169.03,179.43,169.28,179.12,169.28z"/>
			<path class="st10" d="M184.38,174.26h1.66c0.46,0,0.83-0.37,0.83-0.83l0,0c0-0.46-0.37-0.83-0.83-0.83h-1.66
				c-0.46,0-0.83,0.37-0.83,0.83l0,0C183.55,173.89,183.92,174.26,184.38,174.26z"/>
		</g>
		<path class="st10" d="M180.78,156.55h-0.55c-0.3,0-0.55-0.25-0.55-0.55l0,0c0-0.3,0.25-0.55,0.55-0.55h0.55
			c0.3,0,0.55,0.25,0.55,0.55l0,0C181.34,156.3,181.09,156.55,180.78,156.55z"/>
	</g>
	<g>
		<g>
			<path class="st4" d="M74.31,179.24h-1.84c-0.23,0-0.42-0.19-0.42-0.42V109.5c0-0.23,0.19-0.42,0.42-0.42h1.84
				c0.23,0,0.42,0.19,0.42,0.42v69.33C74.73,179.06,74.54,179.24,74.31,179.24z"/>
			<path class="st6" d="M55.46,104.33l15.64,15.64c1.26,1.26,3.31,1.26,4.58,0l15.64-15.64c1.26-1.26,1.26-3.31,0-4.58L75.68,84.11
				c-1.26-1.26-3.31-1.26-4.58,0L55.46,99.76C54.2,101.02,54.2,103.07,55.46,104.33z"/>
			<path class="st8" d="M58.42,103.65l13.06,13.06c1.06,1.06,2.77,1.06,3.82,0l13.06-13.06c1.06-1.06,1.06-2.77,0-3.82L75.3,86.77
				c-1.06-1.06-2.77-1.06-3.82,0L58.42,99.83C57.37,100.88,57.37,102.59,58.42,103.65z"/>
		</g>
		<g>
			<path class="st3" d="M73.69,105.91h-1.54c-0.18,0-0.32-0.14-0.32-0.31l-0.28-12.03c0-0.18,0.14-0.33,0.32-0.33h2.09
				c0.18,0,0.33,0.15,0.32,0.33l-0.28,12.03C74.01,105.77,73.87,105.91,73.69,105.91z M73.95,110.1h-2.05
				c-0.18,0-0.32-0.14-0.32-0.32v-2.05c0-0.18,0.14-0.32,0.32-0.32h2.05c0.18,0,0.32,0.14,0.32,0.32v2.05
				C74.27,109.96,74.13,110.1,73.95,110.1z"/>
		</g>
	</g>
	<g>
		<g>
			<path class="st11" d="M130.3,178.29l0.84,0.74c0.23,0.2,0.55,0.26,0.84,0.16l1-0.37c3.57-1.33,6.13-4.25,6.81-7.77l1.62-8.39
				c0.06-0.31-0.11-0.63-0.42-0.78l-1.4-0.67c-1.38-0.66-2.84-1.14-4.34-1.43l-0.01,0c-1.44-0.28-2.9-0.38-4.37-0.3l-1.8,0.1
				c-0.35,0.02-0.63,0.25-0.69,0.56l-1.6,8.31C126.08,172.02,127.41,175.73,130.3,178.29z"/>
			<path class="st4" d="M133.99,165.97l-0.01,0c-0.46-0.09-0.75-0.53-0.67-0.99l10.61-55.02c0.09-0.46,0.53-0.75,0.99-0.67l0.01,0
				c0.46,0.09,0.75,0.53,0.67,0.99l-10.61,55.02C134.89,165.76,134.45,166.06,133.99,165.97z"/>
			<path class="st0" d="M133.93,166.69L133.93,166.69c-0.65-0.12-1.07-0.75-0.95-1.4l3.08-15.99c0.03-0.14,0.16-0.23,0.3-0.2
				l1.84,0.36c0.14,0.03,0.23,0.16,0.2,0.3l-3.08,15.99C135.21,166.4,134.58,166.82,133.93,166.69z"/>
			<path class="st12" d="M140.98,161.88l-0.63-0.3l-1.46,7.57c-0.68,3.52-3.24,6.44-6.81,7.77l-1,0.37
				c-0.29,0.11-0.61,0.05-0.84-0.16l-0.84-0.74c-0.91-0.81-1.65-1.74-2.24-2.74c0.6,1.73,1.66,3.33,3.14,4.64l0.84,0.74
				c0.23,0.2,0.55,0.26,0.84,0.16l1-0.37c3.57-1.33,6.13-4.25,6.81-7.77l1.62-8.39C141.46,162.35,141.29,162.03,140.98,161.88z"/>
		</g>
		<g>
			
				<rect x="143.83" y="108.28" transform="matrix(0.9819 0.1894 -0.1894 0.9819 23.4643 -25.4354)" class="st6" width="1.93" height="3.51"/>
			<path class="st6" d="M142.81,102.03l-0.9,4.67c-0.19,0.96,0.44,1.89,1.4,2.07l3.23,0.62c0.96,0.19,1.89-0.44,2.07-1.4l0.9-4.67
				c0.09-0.46-0.21-0.9-0.67-0.99l-5.05-0.97C143.34,101.27,142.9,101.57,142.81,102.03z M145.46,107.66l-0.5-0.1
				c-0.96-0.19-1.59-1.11-1.4-2.07l0.49-2.55l3.97,0.77l-0.49,2.55C147.35,107.22,146.42,107.85,145.46,107.66z"/>
			
				<rect x="144.76" y="101.71" transform="matrix(0.9819 0.1894 -0.1894 0.9819 22.0812 -25.8256)" class="st3" width="2.83" height="1.83"/>
		</g>
	</g>
	<g>
		<g>
			<path class="st6" d="M58.63,149.58c-0.15-0.44-0.78-0.44-0.93,0l-3.48,9.75h7.79L58.63,149.58z"/>
			<path class="st6" d="M68.32,177.48l-2.85-8.2h-14.8l-2.92,8.2c-0.11,0.32,0.12,0.66,0.47,0.66h19.64
				C68.19,178.14,68.43,177.8,68.32,177.48z"/>
			<polygon class="st5" points="62.01,159.32 54.22,159.32 50.67,169.28 65.47,169.28 			"/>
		</g>
		<path class="st9" d="M45.43,179.24h25.3c0.36,0,0.65-0.29,0.65-0.65v-1.48c0-0.36-0.29-0.65-0.65-0.65h-25.3
			c-0.36,0-0.65,0.29-0.65,0.65v1.48C44.78,178.95,45.07,179.24,45.43,179.24z"/>
		<path class="st7" d="M70.78,176.48h-2.8l-2.49-7.2l-3.45-9.96l-3.37-9.74c-0.15-0.44-0.77-0.44-0.93,0l-0.45,1.27l7.81,23.97
			H48.78l-0.59,1.66h-2.81c-0.33,0-0.6,0.27-0.6,0.6v1.57c0,0.33,0.27,0.6,0.6,0.6h25.41c0.33,0,0.6-0.27,0.6-0.6v-1.57
			C71.38,176.74,71.11,176.48,70.78,176.48z"/>
		<g>
			<path class="st8" d="M58.17,160.43h1.11c0.46,0,0.83-0.37,0.83-0.83v0c0-0.46-0.37-0.83-0.83-0.83h-1.11
				c-0.46,0-0.83,0.37-0.83,0.83v0C57.34,160.05,57.71,160.43,58.17,160.43z"/>
			<path class="st8" d="M55.68,169.28h-2.21c-0.3,0-0.55-0.25-0.55-0.55l0,0c0-0.3,0.25-0.55,0.55-0.55h2.21
				c0.3,0,0.55,0.25,0.55,0.55l0,0C56.23,169.03,55.98,169.28,55.68,169.28z"/>
			<path class="st10" d="M60.94,174.26h1.66c0.46,0,0.83-0.37,0.83-0.83l0,0c0-0.46-0.37-0.83-0.83-0.83h-1.66
				c-0.46,0-0.83,0.37-0.83,0.83l0,0C60.11,173.89,60.48,174.26,60.94,174.26z"/>
		</g>
		<path class="st10" d="M57.34,156.55h-0.55c-0.3,0-0.55-0.25-0.55-0.55l0,0c0-0.3,0.25-0.55,0.55-0.55h0.55
			c0.3,0,0.55,0.25,0.55,0.55l0,0C57.89,156.3,57.64,156.55,57.34,156.55z"/>
	</g>
	<g>
		<g>
			<path class="st6" d="M232.03,178.92c0.47,0.04,0.72-0.52,0.39-0.85l-7.44-7.19l-3.21,7.1L232.03,178.92z"/>
			<path class="st6" d="M202.62,176.23l8.64,0.79l6.11-13.48l-6.26-6.04c-0.25-0.24-0.65-0.16-0.79,0.15l-8.1,17.89
				C202.07,175.85,202.28,176.2,202.62,176.23z"/>
			<polygon class="st5" points="221.77,177.98 224.98,170.89 217.37,163.54 211.26,177.02 			"/>
		</g>
		<path class="st9" d="M210.46,154.66l-10.44,23.05c-0.15,0.33,0,0.71,0.32,0.86l1.35,0.61c0.33,0.15,0.71,0,0.86-0.32l10.44-23.05
			c0.15-0.33,0-0.71-0.32-0.86l-1.35-0.61C210.99,154.19,210.61,154.33,210.46,154.66z"/>
		<path class="st7" d="M202.52,178.89l1.16-2.55l7.58,0.7l10.5,0.97l10.26,0.95c0.46,0.04,0.72-0.52,0.39-0.85l-0.97-0.93
			l-25.06-2.77l6.74-14.88l-1.27-1.22l1.16-2.56c0.14-0.3,0-0.65-0.3-0.79l-1.43-0.65c-0.3-0.14-0.65,0-0.79,0.3L200,177.75
			c-0.14,0.3,0,0.65,0.3,0.79l1.43,0.65C202.03,179.33,202.38,179.19,202.52,178.89z"/>
		<g>
			<path class="st8" d="M222.34,174.03l-0.46,1.01c-0.19,0.42,0,0.91,0.41,1.1l0,0c0.42,0.19,0.91,0,1.1-0.41l0.46-1.01
				c0.19-0.42,0-0.91-0.41-1.1l0,0C223.03,173.42,222.53,173.61,222.34,174.03z"/>
			<path class="st8" d="M215.3,168.1l0.91-2.02c0.13-0.28,0.46-0.4,0.73-0.28l0,0c0.28,0.13,0.4,0.46,0.28,0.73l-0.91,2.02
				c-0.13,0.28-0.46,0.4-0.73,0.28l0,0C215.3,168.71,215.18,168.38,215.3,168.1z"/>
			<path class="st10" d="M208.6,170.84l-0.69,1.51c-0.19,0.42,0,0.91,0.41,1.1l0,0c0.42,0.19,0.91,0,1.1-0.41l0.69-1.51
				c0.19-0.42,0-0.91-0.41-1.1l0,0C209.28,170.24,208.78,170.42,208.6,170.84z"/>
		</g>
		<path class="st10" d="M226.21,174.87l0.23-0.5c0.13-0.28,0.46-0.4,0.73-0.28l0,0c0.28,0.13,0.4,0.46,0.28,0.73l-0.23,0.5
			c-0.13,0.28-0.46,0.4-0.73,0.28l0,0C226.21,175.48,226.09,175.15,226.21,174.87z"/>
	</g>
</g>
</svg>
