<?xml version="1.0" encoding="utf-8"?>
<!-- Generator: Adobe Illustrator 26.0.3, SVG Export Plug-In . SVG Version: 6.00 Build 0)  -->
<svg version="1.1" xmlns="http://www.w3.org/2000/svg" xmlns:xlink="http://www.w3.org/1999/xlink" x="0px" y="0px"
	 viewBox="0 0 218.64 218.64" style="enable-background:new 0 0 218.64 218.64;" xml:space="preserve">
<style type="text/css">
	.st0{fill:#FFFFFF;}
	.st1{stroke:#000000;stroke-width:4;stroke-miterlimit:10;}
</style>
<g id="Layer_2">
	<path class="st0" d="M181.72,218.54H36.82C16.48,218.54,0,202.06,0,181.72V36.82C0,16.48,16.48,0,36.82,0h144.91
		c20.33,0,36.82,16.48,36.82,36.82v144.91C218.54,202.06,202.06,218.54,181.72,218.54z"/>
</g>
<g id="Layer_5">
	<g>
		<polygon class="st1" points="88.49,111.23 88.47,111.25 88.45,111.23 		"/>
		<polygon class="st1" points="88.49,111.23 88.47,111.25 88.45,111.23 		"/>
		<path class="st1" d="M151.58,192.5l2.75,3.83h-4.72l-2.75-3.83l-18-25.05h-6.07c-0.02-0.12-0.06-0.25-0.09-0.38
			c-0.31-1.21-0.7-2.36-1.16-3.45h4.56l-36.6-50.94l-1.03-1.43l0.01-0.03h-0.04l0.02,0.03l-0.74,1.43l-18.72,35.79h-4.07
			c-0.09,0-0.17,0-0.26-0.01l18.71-35.79l0.74-1.43l0.01-0.03H64.95c-10.69,0-19.36,8.66-19.36,19.35c0,10.35,8.13,18.8,18.34,19.34
			H64c0.31,0.01,0.63,0.02,0.95,0.02H98.8c3.29,0,6.41,0.68,9.25,1.92c1.6,0.69,3.1,1.57,4.49,2.59c3.2,2.35,5.76,5.5,7.42,9.16
			c0.01,0.01,0.01,0.02,0.01,0.03c0.55,1.22,0.98,2.48,1.33,3.8c0,0.01,0.01,0.02,0.01,0.03c0.44,1.81,0.69,3.7,0.69,5.66
			c0,7.66-3.72,14.46-9.45,18.69c-0.31,0.23-0.64,0.46-0.97,0.67c-1.19,0.79-2.46,1.46-3.79,2.03c-2.76,1.17-5.8,1.81-8.98,1.81
			H39.68l0.37-0.7l0.07-0.15l1.55-2.96l0.01-0.03l19.61-37.52c0.16,0.02,0.31,0.04,0.47,0.07c0.06,0.01,0.11,0.01,0.17,0.02
			c0.66,0.08,1.34,0.14,2.01,0.16c0.32,0.01,0.66,0.02,1,0.02h0.54l-4.39,8.4h52.87c0.14,0.23,0.28,0.45,0.41,0.68
			c0.57,0.99,1.03,2.05,1.4,3.15H59.09l-12.32,23.56l-0.76,1.46H98.8c10.69,0,19.36-8.67,19.36-19.36c0-1.97-0.3-3.87-0.85-5.66
			c0-0.01-0.01-0.02-0.01-0.03c-0.42-1.34-0.96-2.61-1.65-3.8c0-0.01-0.01-0.02-0.01-0.03c-3.31-5.87-9.62-9.83-16.84-9.83H64.95
			c-0.32,0-0.63-0.01-0.95-0.02c-0.65-0.02-1.29-0.07-1.92-0.15c-0.01,0-0.02,0-0.04-0.01c-0.01,0-0.02,0-0.03-0.01
			c-2.22-0.28-4.33-0.87-6.31-1.73c-1.6-0.69-3.1-1.57-4.49-2.59c-5.73-4.22-9.46-11.02-9.46-18.69c0-7.66,3.72-14.46,9.46-18.68
			c1.38-1.02,2.88-1.89,4.47-2.59h0.01c2.83-1.24,5.97-1.92,9.25-1.92h21.22l0.76-1.46l18.11-34.66c0.05,0.01,0.1,0.03,0.15,0.05
			l1.58,0.69c0.55,0.28,1.1,0.58,1.61,0.91c0.03,0.02,0.06,0.04,0.09,0.06l-17.22,32.94l-0.76,1.46h0.03l1.76-1.46l24.27-20.15
			c0.1,0.75,0.15,1.51,0.15,2.26c0,0.51-0.01,0.93-0.05,1.31c-0.04,0.5-0.09,0.99-0.17,1.47l-18.2,15.11l-1.76,1.46h2.28
			c10.2,0,18.56-7.89,19.3-17.91v-0.01c0.04-0.47,0.06-0.95,0.06-1.44c0-1.14-0.1-2.25-0.3-3.34v-0.01
			c-0.94-5.46-4.17-10.13-8.68-12.99c-0.01-0.01-0.01-0.01-0.02-0.01c-0.57-0.36-1.16-0.7-1.76-0.99l-1.64-0.72
			c-0.01,0-0.01-0.01-0.02-0.01c-2.16-0.83-4.5-1.29-6.94-1.29H64.95c-3.29,0-6.41-0.68-9.25-1.92c-1.6-0.69-3.1-1.57-4.49-2.59
			c-5.73-4.22-9.46-11.02-9.46-18.68s3.72-14.46,9.45-18.69c3.85-2.83,8.6-4.5,13.74-4.5h65.73l1.64,0.01l2.65,0.01l-0.28,0.51
			l-1.74,3.32l-21.33,40.82c-0.56-0.35-1.17-0.68-1.8-1c-0.34-0.17-0.72-0.35-1.19-0.56c-0.13-0.06-0.28-0.12-0.44-0.17l19.69-37.66
			l0.74-1.43l0.01-0.03h-63.7c-10.69,0-19.36,8.67-19.36,19.36s8.67,19.35,19.36,19.35H98.8c3.08,0,6.02,0.6,8.72,1.7
			c0.01,0,0.01,0.01,0.02,0.01l0.01,0.01c0.16,0.06,0.33,0.12,0.49,0.2c0.38,0.17,0.76,0.34,1.13,0.53c0.6,0.3,1.2,0.63,1.77,0.98
			c0.01,0.01,0.01,0.01,0.02,0.01c0.54,0.33,1.06,0.68,1.57,1.06c4.16,3.06,7.26,7.47,8.65,12.59v0.01
			c0.38,1.41,0.63,2.85,0.74,4.35v0.01c0.04,0.57,0.07,1.15,0.07,1.73c0,7.66-3.72,14.45-9.44,18.68c-1.38,1.02-2.89,1.89-4.49,2.59
			h-0.01c-2.83,1.23-5.97,1.92-9.25,1.92h-5.62l1.05,1.46l36.6,50.94l2.75,3.83L151.58,192.5z"/>
		<path class="st1" d="M198.96,22.34l-0.34,0.28l-0.9,0.74l-3.39,2.81l-71.07,59c-0.14-1.21-0.37-2.41-0.69-3.61
			c-0.06-0.21-0.12-0.43-0.19-0.64l65.95-54.76l4.62-3.83H198.96z"/>
	</g>
</g>
</svg>
