<?xml version="1.0" encoding="utf-8"?>
<!-- Generator: Adobe Illustrator 26.0.3, SVG Export Plug-In . SVG Version: 6.00 Build 0)  -->
<svg version="1.1" id="Layer_5" xmlns="http://www.w3.org/2000/svg" xmlns:xlink="http://www.w3.org/1999/xlink" x="0px" y="0px"
	 viewBox="0 0 218.64 238.87" style="enable-background:new 0 0 218.64 238.87;" xml:space="preserve">
<polygon points="67,122.05 66.98,122.09 66.95,122.05 "/>
<path d="M157.38,238.87h-6.48l-3.78-5.26l-24.71-34.38h-8.33c-0.03-0.17-0.08-0.35-0.12-0.52c-0.43-1.66-0.96-3.24-1.59-4.74h6.26
	l-50.24-69.92l-1.41-1.96l0.02-0.04h-0.05l0.03,0.04l-1.02,1.96l-25.69,49.13h-5.58c-0.12,0-0.23,0-0.35-0.01l25.68-49.12l1.02-1.96
	l0.02-0.04H34.69c-14.67,0-26.57,11.89-26.57,26.56c0,14.21,11.16,25.81,25.18,26.54h0.09c0.43,0.02,0.87,0.03,1.3,0.03h46.46
	c4.51,0,8.8,0.94,12.69,2.63c2.19,0.95,4.26,2.15,6.16,3.55c4.39,3.23,7.91,7.55,10.18,12.57c0.01,0.01,0.01,0.03,0.02,0.04
	c0.75,1.67,1.35,3.41,1.82,5.22c0,0.01,0.01,0.03,0.01,0.04c0.61,2.49,0.95,5.08,0.95,7.77c0,10.52-5.11,19.85-12.97,25.65
	c-0.43,0.32-0.88,0.63-1.33,0.92c-1.63,1.08-3.37,2.01-5.2,2.78c-3.79,1.6-7.96,2.48-12.33,2.48H0l0.51-0.96l0.1-0.2l2.13-4.06
	l0.02-0.04l26.92-51.5c0.22,0.03,0.43,0.06,0.65,0.09c0.08,0.01,0.15,0.02,0.23,0.03c0.91,0.11,1.84,0.19,2.76,0.22
	c0.44,0.02,0.9,0.03,1.37,0.03h0.74l-6.03,11.53h72.57c0.19,0.31,0.38,0.62,0.56,0.94c0.78,1.36,1.42,2.81,1.92,4.32h-77.8
	L9.74,231.57l-1.05,2h72.46c14.67,0,26.57-11.9,26.57-26.57c0-2.71-0.41-5.31-1.16-7.77c0-0.01-0.01-0.03-0.01-0.04
	c-0.57-1.84-1.32-3.58-2.26-5.22c0-0.01-0.01-0.03-0.02-0.04c-4.55-8.06-13.2-13.49-23.12-13.49H34.69c-0.44,0-0.87-0.01-1.3-0.03
	c-0.89-0.03-1.77-0.1-2.64-0.21c-0.01,0-0.03,0-0.05-0.01c-0.01,0-0.03,0-0.04-0.01c-3.05-0.38-5.95-1.2-8.66-2.37
	c-2.19-0.95-4.26-2.15-6.16-3.55c-7.87-5.79-12.98-15.12-12.98-25.65c0-10.52,5.11-19.85,12.98-25.64c1.9-1.4,3.96-2.6,6.14-3.55
	h0.01c3.89-1.7,8.19-2.64,12.7-2.64h29.13l1.05-2l24.86-47.57c0.07,0.02,0.14,0.04,0.21,0.07l2.17,0.95
	c0.76,0.38,1.51,0.8,2.21,1.25c0.04,0.03,0.08,0.05,0.12,0.08L70.8,114.78l-1.05,2h0.04l2.41-2l33.31-27.66
	c0.14,1.03,0.21,2.07,0.21,3.1c0,0.7-0.02,1.27-0.07,1.8c-0.05,0.68-0.13,1.36-0.24,2.02l-24.98,20.74l-2.41,2h3.13
	c14,0,25.48-10.83,26.49-24.58v-0.01c0.06-0.65,0.08-1.3,0.08-1.97c0-1.56-0.14-3.09-0.41-4.58v-0.01
	c-1.29-7.5-5.73-13.9-11.91-17.83c-0.01-0.01-0.02-0.01-0.03-0.02c-0.78-0.5-1.59-0.96-2.42-1.36l-2.25-0.99
	c-0.01,0-0.02-0.01-0.03-0.01c-2.96-1.14-6.17-1.77-9.52-1.77H34.69c-4.51,0-8.8-0.94-12.69-2.63c-2.19-0.95-4.26-2.15-6.16-3.55
	C7.97,51.68,2.86,42.35,2.86,31.83S7.97,11.98,15.83,6.18C21.11,2.3,27.63,0,34.69,0h90.22l2.25,0.02l3.64,0.02l-0.38,0.7
	l-2.39,4.56L98.75,61.33c-0.77-0.48-1.6-0.94-2.47-1.37c-0.46-0.24-0.99-0.48-1.63-0.77c-0.18-0.08-0.38-0.16-0.6-0.24l27.03-51.69
	l1.02-1.96l0.02-0.04H34.69c-14.67,0-26.57,11.9-26.57,26.57s11.9,26.56,26.57,26.56h46.46c4.23,0,8.27,0.83,11.97,2.34
	c0.01,0,0.02,0.01,0.03,0.01l0.02,0.01c0.22,0.08,0.45,0.17,0.67,0.27c0.52,0.23,1.04,0.47,1.55,0.73c0.83,0.41,1.65,0.87,2.43,1.35
	c0.01,0.01,0.02,0.01,0.03,0.02c0.74,0.45,1.46,0.94,2.15,1.45c5.71,4.2,9.96,10.25,11.87,17.28v0.01c0.52,1.93,0.87,3.91,1.02,5.97
	v0.01c0.06,0.78,0.09,1.58,0.09,2.38c0,10.52-5.1,19.84-12.96,25.64c-1.9,1.4-3.97,2.6-6.16,3.56h-0.01
	c-3.89,1.69-8.19,2.63-12.7,2.63h-7.71l1.44,2l50.24,69.92l3.78,5.26l24.7,34.38L157.38,238.87z"/>
<polygon points="67,122.05 66.98,122.09 66.95,122.05 "/>
<path d="M218.64,0.04l-0.46,0.38l-1.23,1.02L212.3,5.3l-97.55,80.99c-0.19-1.66-0.51-3.31-0.95-4.95c-0.08-0.29-0.16-0.59-0.26-0.88
	L204.06,5.3l6.34-5.26H218.64z"/>
</svg>
